<mxfile host="app.diagrams.net" modified="2024-04-23T18:11:36.033Z" agent="Mozilla/5.0 (Macintosh; Intel Mac OS X 10.15; rv:124.0) Gecko/20100101 Firefox/124.0" version="24.2.8" etag="LLLeHD98g6hWaHmWcHnh" type="github">
  <diagram name="Page-1" id="9bMqgZlb5u1lTQk5OEQ-">
    <mxGraphModel>
      <root>
        <mxCell id="0" />
        <mxCell id="1" parent="0" />
      </root>
    </mxGraphModel>
  </diagram>
</mxfile>
